<svg width="36" height="43" viewBox="0 0 36 43" fill="none" xmlns="http://www.w3.org/2000/svg">
<path d="M17.8182 4.45455C21.4019 4.45455 24.7673 5.82209 27.293 8.30773C29.7987 10.7733 31.1818 14.0519 31.1818 17.5286C31.1818 21.0054 29.8009 24.2773 27.2952 26.7473L17.8182 36.0662L8.34336 26.7429C5.83768 24.2773 4.45677 21.0054 4.45677 17.5242C4.45677 14.043 5.83768 10.7711 8.34336 8.30105C10.8691 5.82209 14.2367 4.45455 17.8182 4.45455ZM17.8182 0C13.259 0 8.69527 1.71055 5.2185 5.13386C-1.7395 11.9805 -1.7395 23.079 5.2185 29.9256L17.8182 42.316L30.4179 29.9212C37.3759 23.079 37.3759 11.9783 30.4179 5.13386C26.9411 1.71055 22.3796 0 17.8182 0Z" fill="white"/>
<path d="M17.8175 12.2496C19.3053 12.2496 20.704 12.8287 21.7553 13.8778C23.9291 16.0516 23.9291 19.5841 21.7553 21.7556C20.7018 22.8069 19.3053 23.3838 17.8175 23.3838C16.3297 23.3838 14.9332 22.8047 13.8797 21.7556C11.7059 19.5818 11.7059 16.0494 13.8797 13.8778C14.9332 12.8287 16.3319 12.2496 17.8175 12.2496ZM17.8175 10.0224C15.8219 10.0224 13.8262 10.7841 12.305 12.3031C9.26031 15.3478 9.26031 20.2856 12.305 23.3303C13.8285 24.8538 15.8196 25.6111 17.8175 25.6111C19.8154 25.6111 21.8088 24.8493 23.33 23.3303C26.3725 20.2856 26.3725 15.3478 23.33 12.3031C21.8088 10.7819 19.8131 10.0224 17.8175 10.0224Z" fill="white"/>
</svg>
