<svg width="13" height="16" viewBox="0 0 13 16" fill="none" xmlns="http://www.w3.org/2000/svg">
<path d="M6.46702 1.61675C7.7677 1.61675 8.98916 2.1131 9.90586 3.01525C10.8153 3.91012 11.3173 5.10005 11.3173 6.36193C11.3173 7.62381 10.8161 8.81131 9.90666 9.7078L6.46702 13.0901L3.02818 9.70619C2.11876 8.81131 1.61756 7.62381 1.61756 6.36031C1.61756 5.09682 2.11876 3.90931 3.02818 3.01282C3.94488 2.1131 5.16715 1.61675 6.46702 1.61675ZM6.46702 0C4.81227 0 3.15591 0.620834 1.89403 1.86331C-0.631343 4.34826 -0.631343 8.37641 1.89403 10.8614L6.46702 15.3584L11.04 10.8597C13.5654 8.37641 13.5654 4.34745 11.04 1.86331C9.77813 0.620834 8.12258 0 6.46702 0Z" fill="#00267C"/>
<path d="M6.46819 4.44528C7.00819 4.44528 7.51585 4.65546 7.89741 5.0362C8.68638 5.82518 8.68638 7.10727 7.89741 7.89543C7.51504 8.27699 7.00819 8.48636 6.46819 8.48636C5.9282 8.48636 5.42135 8.27618 5.03898 7.89543C4.25001 7.10646 4.25001 5.82437 5.03898 5.0362C5.42135 4.65546 5.92901 4.44528 6.46819 4.44528ZM6.46819 3.6369C5.74389 3.6369 5.01958 3.91337 4.46746 4.46468C3.36241 5.56973 3.36241 7.3619 4.46746 8.46696C5.02039 9.01989 5.74308 9.29473 6.46819 9.29473C7.19331 9.29473 7.91681 9.01827 8.46893 8.46696C9.57317 7.3619 9.57317 5.56973 8.46893 4.46468C7.91681 3.91256 7.1925 3.6369 6.46819 3.6369Z" fill="#00267C"/>
</svg>
