<svg width="18" height="18" viewBox="0 0 18 18" fill="none" xmlns="http://www.w3.org/2000/svg">
<g clip-path="url(#clip0_2007_4410)">
<path d="M8.37968 0.00439042C4.95248 0.124643 2.10533 2.79849 1.77641 6.21153C1.70921 6.89414 1.74811 7.55553 1.86836 8.18862C1.86836 8.18862 1.87897 8.26289 1.91434 8.40437C2.02045 8.8783 2.1796 9.33809 2.37767 9.76958C3.06735 11.4036 4.66246 14.1376 8.24174 17.112C8.46103 17.296 8.78288 17.296 9.0057 17.112C12.585 14.1411 14.1801 11.4071 14.8733 9.76605C15.0749 9.33455 15.2305 8.8783 15.3366 8.40083C15.3685 8.26289 15.3826 8.18508 15.3826 8.18508C15.464 7.76066 15.5064 7.32563 15.5064 6.87999C15.5064 2.99655 12.2914 -0.133546 8.37968 0.00439042ZM8.62372 10.3036C6.77749 10.3036 5.28141 8.80757 5.28141 6.96134C5.28141 5.11511 6.77749 3.61903 8.62372 3.61903C10.4699 3.61903 11.966 5.11511 11.966 6.96134C11.966 8.80757 10.4699 10.3036 8.62372 10.3036Z" fill="white"/>
</g>
<defs>
<clipPath id="clip0_2007_4410">
<rect width="17.25" height="17.25" fill="white"/>
</clipPath>
</defs>
</svg>
