<svg width="14" height="14" viewBox="0 0 14 14" fill="none" xmlns="http://www.w3.org/2000/svg">
<path d="M10.4854 2.95471C11.0297 2.95471 11.4706 2.52299 11.4706 1.98551V0.971121C11.4706 0.433158 11.0302 0 10.4854 0C9.94066 0 9.50073 0.432677 9.50073 0.971121V1.98599C9.50122 2.52299 9.94114 2.95471 10.4854 2.95471Z" fill="#666666"/>
<path d="M13.9849 1.67973H12.0018V2.17346C12.0018 2.98834 11.3302 3.65226 10.5021 3.65226C9.67295 3.65226 9.00282 2.98834 9.00282 2.17346V1.67973H5.00108V2.17346C5.00108 2.98834 4.32851 3.65226 3.50085 3.65226C2.67319 3.65226 2.00111 2.98882 2.00111 2.17346V1.67973L0 1.65521V14H1.0008H13.0007L14 13.9971L13.9849 1.67973ZM12.9997 13.0168H1.0008V5.13057H13.0007V13.0168H12.9997Z" fill="#666666"/>
<path d="M3.48544 2.95471C4.02974 2.95471 4.47112 2.52299 4.47112 1.98551V0.971121C4.47112 0.432677 4.02974 0 3.48544 0C2.94114 0 2.50122 0.432677 2.50122 0.971121V1.98599C2.50122 2.52299 2.94066 2.95471 3.48544 2.95471Z" fill="#666666"/>
<path d="M6.57973 6.18878H5.00391V7.55989H6.57973V6.18878Z" fill="#666666"/>
<path d="M9.12904 6.18878H7.55176V7.55989H9.12904V6.18878Z" fill="#666666"/>
<path d="M11.4904 6.18878H9.91455V7.55989H11.4904V6.18878Z" fill="#666666"/>
<path d="M6.57973 8.46552H5.00391V9.83566H6.57973V8.46552Z" fill="#666666"/>
<path d="M9.12904 8.46552H7.55176V9.83566H9.12904V8.46552Z" fill="#666666"/>
<path d="M11.4904 8.46552H9.91455V9.83566H11.4904V8.46552Z" fill="#666666"/>
<path d="M6.57973 10.7877H5.00391V12.1578H6.57973V10.7877Z" fill="#666666"/>
<path d="M4.07607 8.46552H2.50122V9.83566H4.07607V8.46552Z" fill="#666666"/>
<path d="M4.07607 6.24976H2.50122V7.6199H4.07607V6.24976Z" fill="#666666"/>
<path d="M4.07607 10.7877H2.50122V12.1578H4.07607V10.7877Z" fill="#666666"/>
<path d="M9.12904 10.7877H7.55176V12.1578H9.12904V10.7877Z" fill="#666666"/>
<path d="M11.4904 10.7877H9.91455V12.1578H11.4904V10.7877Z" fill="#666666"/>
</svg>
