<svg width="21" height="19" viewBox="0 0 21 19" fill="none" xmlns="http://www.w3.org/2000/svg">
<g clip-path="url(#clip0_47_1182)">
<path d="M0 2.30115H4.7582C5.0253 3.44917 5.29241 4.5926 5.55951 5.7529H5.79991C7.53929 5.7529 9.2785 5.75187 11.0175 5.74983C11.1575 5.74983 11.2232 5.78665 11.2788 5.91602C11.4187 6.24483 11.5854 6.56291 11.7494 6.90195H10.0287C10.0965 7.67974 10.1623 8.43606 10.2285 9.19646H12.7211C12.7567 8.80373 12.7923 8.41304 12.828 8.0244C13.195 8.24122 13.5507 8.44884 13.9023 8.66362C13.9198 8.68007 13.9337 8.69984 13.9428 8.72167C13.952 8.7435 13.9564 8.76691 13.9557 8.79044C13.9557 8.91777 13.9418 9.04612 13.9316 9.20465H14.1416C14.7292 9.20465 15.3168 9.19084 15.9007 9.20823C16.5995 9.22868 17.2731 9.11209 17.9393 8.93004C17.9692 8.92186 18.0002 8.91521 18.0632 8.89987C17.6187 10.5455 17.1807 12.167 16.7373 13.809H5.62575C5.53939 13.8048 5.45281 13.8086 5.3672 13.8203C5.22447 13.8477 5.09704 13.9239 5.00871 14.0347C4.92039 14.1455 4.8772 14.2832 4.88721 14.4223C4.89722 14.5613 4.95974 14.6921 5.06311 14.7902C5.16648 14.8883 5.30362 14.9471 5.44893 14.9555C5.51517 14.9601 5.58248 14.9555 5.64873 14.9555H16.8591V16.1005H15.5802C15.8142 16.9765 15.5866 17.6857 14.7901 18.1572C14.1565 18.5361 13.4824 18.5116 12.8702 18.1025C12.1458 17.6208 11.9422 16.9376 12.1693 16.1179H9.58638C9.81609 16.9764 9.58638 17.6857 8.79201 18.1577C8.1563 18.5346 7.49175 18.4983 6.86886 18.1066C6.20217 17.6847 5.99596 17.0741 6.16691 16.1071C5.92652 16.1071 5.68933 16.1112 5.45267 16.1071C4.6129 16.0918 3.88317 15.518 3.71916 14.7474C3.54768 13.943 3.95475 13.1468 4.73416 12.8205C4.95479 12.7285 5.2064 12.6983 5.44733 12.6615C5.59637 12.639 5.75183 12.6574 5.92812 12.6574C5.21602 9.58204 4.50819 6.52609 3.79609 3.45275H0V2.30115ZM6.35709 9.19391H9.02386C8.95762 8.42685 8.89191 7.6736 8.82567 6.91524H5.82929C6.00718 7.68178 6.18133 8.43452 6.35709 9.19391ZM13.6277 12.6559C14.3414 12.6559 15.0198 12.6559 15.6983 12.6518C15.727 12.6477 15.7542 12.6369 15.7776 12.6204C15.8009 12.6039 15.8197 12.5822 15.8324 12.5572C16.0354 11.831 16.2303 11.1029 16.4301 10.3634H13.8275C13.7612 11.1238 13.6955 11.8781 13.6277 12.6559ZM7.1584 12.6441H9.32569C9.25891 11.8771 9.1932 11.1228 9.12696 10.3675H6.629C6.80689 11.1346 6.98104 11.8868 7.1584 12.6441ZM10.3311 10.3639C10.3989 11.1402 10.4646 11.8939 10.5298 12.6421H12.4257C12.4914 11.875 12.5566 11.1233 12.6218 10.3639H10.3311ZM7.87371 17.2577C7.99276 17.2585 8.10937 17.2254 8.20873 17.1627C8.30809 17.0999 8.38572 17.0102 8.43174 16.9051C8.47777 16.8 8.49011 16.6842 8.46721 16.5724C8.44431 16.4605 8.3872 16.3577 8.30313 16.2771C8.21906 16.1964 8.11182 16.1414 7.99506 16.1192C7.87829 16.097 7.75726 16.1085 7.64734 16.1523C7.53742 16.196 7.44357 16.2701 7.37773 16.365C7.31188 16.46 7.277 16.5715 7.27753 16.6855C7.27987 16.8365 7.34353 16.9806 7.45502 17.0874C7.5665 17.1943 7.71706 17.2553 7.87478 17.2577H7.87371ZM13.8739 16.1081C13.755 16.1087 13.639 16.143 13.5404 16.2067C13.4419 16.2704 13.3654 16.3607 13.3205 16.4662C13.2757 16.5716 13.2646 16.6874 13.2885 16.7989C13.3125 16.9104 13.3706 17.0125 13.4553 17.0924C13.54 17.1723 13.6476 17.2263 13.7644 17.2476C13.8813 17.2688 14.002 17.2564 14.1115 17.2119C14.2209 17.1674 14.3141 17.0928 14.3792 16.9975C14.4443 16.9022 14.4783 16.7906 14.4771 16.6768C14.4739 16.5254 14.409 16.3813 14.2963 16.275C14.1837 16.1688 14.0321 16.1089 13.8739 16.1081Z" fill="white"/>
<path d="M12.0762 4.0163C12.08 2.95082 12.5244 1.93014 13.3123 1.17749C14.1002 0.424841 15.1673 0.00148092 16.2804 0C18.5994 0 20.4825 1.81997 20.4734 4.04647C20.4671 5.11204 20.0201 6.13183 19.2303 6.88277C18.4405 7.63371 17.3722 8.05467 16.259 8.05357C13.9502 8.04692 12.073 6.23463 12.0762 4.0163ZM14.4833 4.61256H15.6832V5.73757H16.8851V4.59415H18.0604V3.44152H16.8664V2.31651H15.6645V3.45942H14.4833V4.61256Z" fill="white"/>
</g>
<defs>
<clipPath id="clip0_47_1182">
<rect width="20.4736" height="18.4262" fill="white"/>
</clipPath>
</defs>
</svg>
