<svg width="13" height="13" viewBox="0 0 13 13" fill="none" xmlns="http://www.w3.org/2000/svg">
<g clip-path="url(#clip0_2007_4541)">
<path d="M4.81187 11.7623C5.10715 11.7623 5.34652 11.5229 5.34652 11.2276C5.34652 10.9324 5.10715 10.693 4.81187 10.693C4.51659 10.693 4.27722 10.9324 4.27722 11.2276C4.27722 11.5229 4.51659 11.7623 4.81187 11.7623Z" stroke="#B5B5B5" stroke-width="2" stroke-linecap="round" stroke-linejoin="round"/>
<path d="M10.693 11.7623C10.9883 11.7623 11.2276 11.5229 11.2276 11.2276C11.2276 10.9324 10.9883 10.693 10.693 10.693C10.3977 10.693 10.1583 10.9324 10.1583 11.2276C10.1583 11.5229 10.3977 11.7623 10.693 11.7623Z" stroke="#B5B5B5" stroke-width="2" stroke-linecap="round" stroke-linejoin="round"/>
<path d="M0.534668 0.534668H2.67327L4.10613 7.69364C4.15502 7.93979 4.28894 8.1609 4.48442 8.31827C4.67991 8.47564 4.92452 8.55924 5.17544 8.55443H10.3722C10.6232 8.55924 10.8678 8.47564 11.0633 8.31827C11.2587 8.1609 11.3926 7.93979 11.4415 7.69364L12.297 3.20792H3.20792" stroke="#B5B5B5" stroke-width="2" stroke-linecap="round" stroke-linejoin="round"/>
</g>
<defs>
<clipPath id="clip0_2007_4541">
<rect width="12.8316" height="12.8316" fill="white"/>
</clipPath>
</defs>
</svg>
