<svg width="48" height="48" viewBox="0 0 48 48" fill="none" xmlns="http://www.w3.org/2000/svg">
<circle cx="24" cy="24" r="23.5" stroke="#00267C"/>
<g clip-path="url(#clip0_4008_110)">
<rect width="24" height="24" transform="translate(12 12)" fill="white"/>
<path d="M35.3814 29.7086L32.3986 26.7251C31.6027 25.9293 30.2123 25.9279 29.4151 26.7251L28.9177 27.2225L34.8842 33.1886L35.3814 32.6914C36.2073 31.8655 36.2045 30.5303 35.3814 29.7086Z" fill="#00267C"/>
<path d="M27.8963 28.1892C27.2686 28.6754 26.3732 28.656 25.7997 28.0812L19.902 22.1795C19.3272 21.6047 19.3078 20.7086 19.7941 20.0825L13.8414 14.1301C11.2806 17.1151 11.3807 21.6129 14.207 24.4392L23.5399 33.7762C26.2521 36.4883 30.6947 36.8481 33.8492 34.1417L27.8963 28.1892Z" fill="#00267C"/>
<path d="M21.2578 15.5808L18.275 12.5974C17.4792 11.8015 16.0887 11.8002 15.2916 12.5974L14.7942 13.0948L20.7606 19.0608L21.2578 18.5636C22.0837 17.7378 22.0809 16.4026 21.2578 15.5808Z" fill="#00267C"/>
</g>
<defs>
<clipPath id="clip0_4008_110">
<rect width="24" height="24" fill="white" transform="translate(12 12)"/>
</clipPath>
</defs>
</svg>
