<svg width="48" height="48" viewBox="0 0 48 48" fill="none" xmlns="http://www.w3.org/2000/svg">
<circle cx="24" cy="24" r="23.5" stroke="#00267C"/>
<path d="M24.7629 29.7169C22.453 29.7169 20.143 29.7169 17.833 29.7169C17.2943 29.7169 17.045 29.5264 16.9015 29.0136C16.2993 26.8471 15.6947 24.6806 15.0925 22.5141C14.4739 20.2865 13.8576 18.0565 13.2366 15.8288C13.1566 15.5395 13.2318 15.5771 12.9049 15.5771C11.8698 15.5748 10.8325 15.5771 9.79745 15.5724C9.35286 15.57 9.00236 15.2219 9.00001 14.7938C8.99766 14.3515 9.3458 14.0034 9.80215 14.001C10.6866 13.9987 11.5711 14.001 12.4556 14.001C12.8743 14.001 13.293 13.9987 13.7117 14.001C14.1398 14.0034 14.4221 14.2104 14.5374 14.615C14.7538 15.3819 14.9702 16.1464 15.1725 16.9179C15.2196 17.0991 15.2925 17.1485 15.4783 17.1485C21.9425 17.1438 28.4067 17.1438 34.8709 17.1438C35.0144 17.1438 35.1649 17.1508 35.299 17.1955C35.6919 17.3272 35.9012 17.7577 35.7883 18.1529C35.0473 20.7028 34.3063 23.2527 33.5654 25.8027C33.2501 26.8918 32.9349 27.9786 32.6197 29.0677C32.4903 29.5146 32.2175 29.7146 31.7494 29.7146C29.4158 29.7169 27.0894 29.7169 24.7629 29.7169ZM24.7629 23.4268C24.7629 23.4292 24.7629 23.4292 24.7629 23.4268C25.8568 23.4292 26.9506 23.4292 28.0444 23.4292C28.7831 23.4292 29.5217 23.4315 30.2603 23.4268C30.7096 23.4245 31.0578 23.0575 31.0437 22.6176C31.0295 22.1801 30.6814 21.8602 30.2062 21.8602C27.3082 21.8578 24.4125 21.8578 21.5144 21.8578C20.764 21.8578 20.0136 21.8555 19.2632 21.8602C18.8092 21.8625 18.4564 22.2412 18.4799 22.6858C18.5011 23.1069 18.8468 23.4245 19.2985 23.4245C21.1215 23.4292 22.9422 23.4268 24.7629 23.4268ZM24.7629 25.0029C23.4715 25.0029 22.1801 25.0052 20.8887 25.0029C20.6276 25.0029 20.4064 25.0852 20.2394 25.2852C20.0301 25.5368 19.9877 25.8215 20.1265 26.1155C20.2677 26.4166 20.5217 26.5695 20.8534 26.5695C21.9754 26.5742 23.0999 26.5719 24.2219 26.5719C25.6945 26.5719 27.167 26.5719 28.6372 26.5719C28.8842 26.5719 29.0983 26.499 29.2629 26.3155C29.4841 26.0685 29.5429 25.7791 29.4064 25.4733C29.2677 25.1652 29.016 25.0029 28.6749 25.0029C27.3693 25.0005 26.0661 25.0029 24.7629 25.0029Z" fill="#00267C"/>
<path d="M20.0459 36C18.7498 35.9976 17.6936 34.9414 17.6936 33.643C17.6936 32.3374 18.7569 31.2812 20.0624 31.2859C21.3609 31.2906 22.41 32.3515 22.4053 33.6524C22.4006 34.9509 21.3468 36 20.0459 36Z" fill="#00267C"/>
<path d="M29.4863 31.2859C30.7848 31.2906 31.8363 32.3492 31.8316 33.6477C31.8293 34.9556 30.7684 36.0071 29.4581 35.9976C28.162 35.9906 27.1129 34.9273 27.1199 33.6289C27.1246 32.3327 28.1879 31.2812 29.4863 31.2859Z" fill="#00267C"/>
</svg>
