<svg width="24" height="24" viewBox="0 0 24 24" fill="none" xmlns="http://www.w3.org/2000/svg">
<g clip-path="url(#clip0_2007_3534)">
<rect width="24" height="24" fill="white"/>
<path d="M23.3814 17.7086L20.3986 14.7251C19.6027 13.9293 18.2123 13.9279 17.4151 14.7251L16.9177 15.2225L22.8842 21.1886L23.3814 20.6914C24.2073 19.8655 24.2045 18.5303 23.3814 17.7086Z" fill="#00267C"/>
<path d="M15.8963 16.1892C15.2686 16.6754 14.3732 16.656 13.7997 16.0812L7.90203 10.1795C7.32721 9.60466 7.30785 8.7086 7.79408 8.08249L1.84139 2.13013C-0.719436 5.11512 -0.619311 9.61291 2.20701 12.4392L11.5399 21.7762C14.2521 24.4883 18.6947 24.8481 21.8492 22.1417L15.8963 16.1892Z" fill="#00267C"/>
<path d="M9.25782 3.58081L6.27503 0.597361C5.47918 -0.198481 4.08873 -0.199841 3.29158 0.597361L2.79419 1.09475L8.76061 7.06085L9.25782 6.5636C10.0837 5.73776 10.0809 4.40257 9.25782 3.58081Z" fill="#00267C"/>
</g>
<defs>
<clipPath id="clip0_2007_3534">
<rect width="24" height="24" fill="white"/>
</clipPath>
</defs>
</svg>
