<svg width="18" height="19" viewBox="0 0 18 19" fill="none" xmlns="http://www.w3.org/2000/svg">
<g clip-path="url(#clip0_2007_4436)">
<path d="M8.50962 19H9.59989C9.6566 18.9889 9.7129 18.972 9.77003 18.9675C11.0606 18.8661 12.2765 18.4964 13.4115 17.837C16.8222 15.8555 18.6272 11.4547 17.8008 7.64019C17.4081 5.82728 16.6971 4.18345 15.4894 2.81879C13.4063 0.465069 10.7797 -0.274326 7.83046 0.0866547C6.33042 0.270269 4.9585 0.872812 3.72202 1.79265C1.75525 3.25568 0.551639 5.23794 0.139786 7.74587C0.0790677 8.11601 0.045956 8.49117 0 8.86368V10.1263C0.0105924 10.1918 0.0263559 10.257 0.0309432 10.323C0.120603 11.6154 0.417441 12.8505 1.01012 13.9882C2.42908 16.7122 4.66525 18.2351 7.50393 18.8492C7.83504 18.9207 8.17417 18.9508 8.50962 19ZM2.50731 3.84097C2.53792 3.85409 2.55127 3.85567 2.55869 3.8636C3.12701 4.46773 3.75422 4.99145 4.44748 5.42808C4.48584 5.45221 4.5107 5.55243 4.49844 5.60632C4.28242 6.55644 4.14842 7.52528 4.09809 8.50094C4.0865 8.72683 4.07674 8.9528 4.06607 9.18036H0.588754C0.672576 7.16931 1.30945 5.39822 2.50731 3.84097ZM2.51565 15.1419C1.4419 13.9382 0.36231 10.898 0.622366 9.811H4.07149C4.09651 11.0667 4.2403 12.2957 4.52638 13.4896C4.16882 13.7522 3.81268 13.991 3.48132 14.2633C3.14995 14.5356 2.8431 14.8416 2.51574 15.1419H2.51565ZM17.392 9.81012C17.5537 11.1701 16.4682 14.1855 15.471 15.1477C15.4376 15.1161 15.4025 15.0852 15.3702 15.0508C14.8478 14.4955 14.2704 14.0132 13.6309 13.618C13.4975 13.5355 13.483 13.456 13.5177 13.3088C13.7204 12.4498 13.843 11.577 13.8948 10.6932C13.912 10.3995 13.9265 10.1058 13.9423 9.81003L17.392 9.81012ZM17.4153 9.18028H13.9429C13.9374 9.13501 13.9302 9.09961 13.9295 9.06403C13.906 7.89857 13.771 6.74791 13.5031 5.61698C13.477 5.50637 13.5062 5.45406 13.5959 5.39805C14.2419 4.99537 14.8365 4.50705 15.3651 3.94497C15.4009 3.90701 15.4408 3.87337 15.4878 3.82934C16.6893 5.39444 17.3289 7.1649 17.4153 9.18028H17.4153ZM9.29963 0.641905C9.33241 0.641905 9.35576 0.638382 9.3777 0.642521C9.441 0.654497 9.50431 0.667091 9.56661 0.683823C10.247 0.866735 10.7698 1.30248 11.2197 1.84813C11.8277 2.58568 12.2328 3.4459 12.5513 4.35544C12.6436 4.61964 12.7214 4.88868 12.8073 5.16027C11.6897 5.75031 10.5319 6.06646 9.29963 6.11472V0.641905ZM8.70279 18.3532C8.66842 18.351 8.6454 18.3518 8.62322 18.3479C8.01111 18.239 7.50751 17.9124 7.07272 17.4625C6.10264 16.4576 5.59488 15.1848 5.1977 13.8312C6.30699 13.2411 7.46865 12.9246 8.70279 12.8758V18.3532ZM12.7923 13.8335C12.5671 14.8486 11.9537 16.1876 11.3551 16.9726C11.048 17.3751 10.7003 17.731 10.276 17.9953C9.97696 18.1814 9.66027 18.3171 9.30263 18.3558V12.886C10.1862 12.8346 11.9588 13.3164 12.7923 13.8335ZM8.70437 0.63072V6.11534C7.4679 6.06048 6.3079 5.7496 5.17043 5.14486C5.38436 4.57878 5.57452 4.00882 5.81264 3.46202C6.17471 2.62945 6.64828 1.87376 7.33195 1.28795C7.72837 0.947931 8.1695 0.70672 8.70437 0.63072ZM4.65148 9.8103H8.69912V12.2652C7.4151 12.3152 6.20715 12.6407 5.05091 13.2222C4.79519 12.0857 4.67259 10.9616 4.65148 9.8103ZM4.66349 9.18213C4.60278 8.51169 4.89019 6.15515 5.07793 5.77928C6.22283 6.36175 7.43437 6.67473 8.70212 6.72801V9.18213H4.66349ZM12.9515 13.2238C11.7823 12.6301 10.5712 12.3153 9.3008 12.263V9.81179H13.3525C13.3289 10.9632 13.2091 12.0876 12.9515 13.2238ZM13.3352 9.1794H9.29905V6.72651C10.5806 6.68081 11.7941 6.35805 12.9451 5.7718C13.1674 6.58614 13.4043 8.66351 13.3353 9.1794H13.3352ZM11.1622 0.92301C12.6891 1.34476 13.9902 2.16182 15.0936 3.36506C14.5586 3.95298 13.976 4.44958 13.3132 4.86217C12.8586 3.37536 12.2467 2.00727 11.1624 0.92301H11.1622ZM15.0936 15.6293C13.9897 16.8298 12.6895 17.646 11.1652 18.0687C12.2462 16.9826 12.859 15.6158 13.3137 14.1322C13.9776 14.5448 14.5589 15.0432 15.0936 15.6293ZM4.69035 14.13C5.14399 15.613 5.7556 16.9813 6.85762 18.0604C5.90614 18.0069 3.39291 16.4312 2.92859 15.6043C3.45087 15.0354 4.02845 14.5392 4.69035 14.13ZM2.91024 3.36066C4.01611 2.16077 5.31372 1.34634 6.83244 0.925827C5.75159 2.01167 5.14424 3.38065 4.68952 4.85671C4.02478 4.44386 3.44629 3.9492 2.91024 3.36066Z" fill="white"/>
</g>
<defs>
<clipPath id="clip0_2007_4436">
<rect width="18" height="19" fill="white" transform="matrix(1 0 0 -1 0 19)"/>
</clipPath>
</defs>
</svg>
