<svg width="15" height="14" viewBox="0 0 15 14" fill="none" xmlns="http://www.w3.org/2000/svg">
<path d="M8.61259 5.04997V2.44999C8.61259 1.93282 8.39891 1.43683 8.01856 1.07114C7.63821 0.705445 7.12234 0.5 6.58444 0.5L3.88025 6.34996V13.4999H11.5061C11.8322 13.5035 12.1486 13.3936 12.397 13.1905C12.6455 12.9875 12.8093 12.7049 12.8582 12.3949L13.7911 6.54496C13.8205 6.35864 13.8075 6.16841 13.7528 5.98743C13.6982 5.80645 13.6033 5.63906 13.4746 5.49685C13.346 5.35465 13.1868 5.24102 13.008 5.16386C12.8292 5.0867 12.635 5.04784 12.439 5.04997H8.61259ZM3.88025 13.4999H1.8521C1.4935 13.4999 1.14959 13.363 0.89602 13.1192C0.642453 12.8754 0.5 12.5447 0.5 12.1999V7.64995C0.5 7.30517 0.642453 6.97452 0.89602 6.73072C1.14959 6.48693 1.4935 6.34996 1.8521 6.34996H3.88025" fill="#00267C"/>
<path d="M3.88025 6.34996L6.58444 0.5C7.12234 0.5 7.63821 0.705445 8.01856 1.07114C8.39891 1.43683 8.61259 1.93282 8.61259 2.44999V5.04997H12.439C12.635 5.04784 12.8292 5.0867 13.008 5.16386C13.1868 5.24103 13.346 5.35465 13.4746 5.49685C13.6033 5.63906 13.6982 5.80645 13.7528 5.98743C13.8075 6.16841 13.8205 6.35864 13.7911 6.54496L12.8582 12.3949C12.8093 12.7049 12.6455 12.9875 12.397 13.1905C12.1486 13.3936 11.8322 13.5035 11.5061 13.4999H3.88025M3.88025 6.34996V13.4999M3.88025 6.34996H1.8521C1.4935 6.34996 1.14959 6.48693 0.89602 6.73072C0.642453 6.97452 0.5 7.30517 0.5 7.64995V12.1999C0.5 12.5447 0.642453 12.8754 0.89602 13.1192C1.14959 13.363 1.4935 13.4999 1.8521 13.4999H3.88025" stroke="white" stroke-linecap="round" stroke-linejoin="round"/>
</svg>
