<svg width="18" height="18" viewBox="0 0 18 18" fill="none" xmlns="http://www.w3.org/2000/svg">
<g clip-path="url(#clip0_2007_4421)">
<path d="M17.0981 3.42725L11.8666 8.62512L17.0981 13.823C17.1927 13.6253 17.2501 13.4068 17.2501 13.1735V4.07678C17.2501 3.8434 17.1927 3.62491 17.0981 3.42725Z" fill="white"/>
<path d="M15.7339 2.56055H1.51611C1.28273 2.56055 1.06424 2.61792 0.866577 2.7125L7.55308 9.36531C8.14429 9.95653 9.10571 9.95653 9.69693 9.36531L16.3834 2.7125C16.1858 2.61792 15.9673 2.56055 15.7339 2.56055Z" fill="white"/>
<path d="M0.151948 3.42725C0.0573765 3.62491 0 3.8434 0 4.07678V13.1735C0 13.4068 0.0573765 13.6254 0.151948 13.823L5.38352 8.62512L0.151948 3.42725Z" fill="white"/>
<path d="M11.1519 9.33984L10.4116 10.0801C9.42645 11.0652 7.82352 11.0652 6.83841 10.0801L6.09814 9.33984L0.866577 14.5377C1.06424 14.6323 1.28273 14.6897 1.51611 14.6897H15.7339C15.9673 14.6897 16.1858 14.6323 16.3834 14.5377L11.1519 9.33984Z" fill="white"/>
</g>
<defs>
<clipPath id="clip0_2007_4421">
<rect width="17.25" height="17.25" fill="white"/>
</clipPath>
</defs>
</svg>
