<svg width="16" height="16" viewBox="0 0 16 16" fill="none" xmlns="http://www.w3.org/2000/svg">
<g clip-path="url(#clip0_138_2217)">
<path d="M0 4.22892C0.0225061 4.05149 0.0351657 3.87196 0.0696281 3.69699C0.156575 3.2608 0.351657 2.8753 0.663225 2.55663C1.07581 2.13502 1.47406 1.69585 1.91829 1.30938C2.5947 0.721497 3.32923 0.724747 3.98023 1.33432C4.67317 1.98316 5.33754 2.66458 5.98468 3.359C6.46566 3.87459 6.46073 4.66563 5.99347 5.19633C5.64735 5.58974 5.26589 5.95259 4.89454 6.32308C4.8228 6.39449 4.80891 6.44104 4.85595 6.53625C5.22817 7.289 5.75417 7.92843 6.32271 8.53599C6.90584 9.15891 7.54727 9.71517 8.26834 10.1746C8.47362 10.3054 8.6934 10.4135 8.92172 10.5405C9.20173 10.2574 9.4674 9.97191 9.75198 9.70656C9.95884 9.51333 10.1713 9.31324 10.4151 9.17639C10.9271 8.88882 11.5521 8.96146 11.9751 9.36849C12.6845 10.0512 13.3842 10.7456 14.0595 11.462C14.5613 11.9944 14.5655 12.8001 14.0804 13.3516C13.6549 13.8352 13.1999 14.2943 12.7368 14.7425C12.383 15.085 11.9391 15.2671 11.4487 15.3302C11.415 15.3346 11.3824 15.3486 11.3493 15.3582H10.7788C10.7458 15.3494 10.7131 15.3377 10.6796 15.3319C10.3558 15.2728 10.0264 15.2352 9.70899 15.1524C8.58184 14.8573 7.5536 14.3336 6.57652 13.7158C4.12629 12.1663 2.24225 10.0984 0.924419 7.51227C0.55386 6.78588 0.263743 6.02549 0.105497 5.22277C0.0544189 4.96462 0.0344624 4.70033 0 4.43884V4.22892ZM0.883978 4.35733C0.900154 4.53125 0.913781 4.70542 0.93365 4.87898C0.942441 4.95804 0.962046 5.03603 0.979541 5.11394C1.21691 6.17323 1.66123 7.1482 2.22731 8.0659C3.73416 10.5086 5.73948 12.4183 8.32856 13.691C9.1255 14.0828 9.94812 14.3993 10.8451 14.4769C11.398 14.5247 11.8842 14.3937 12.2785 13.9823C12.6038 13.6431 12.936 13.3106 13.2642 12.9743C13.3134 12.9245 13.3596 12.8718 13.4026 12.8166C13.6136 12.543 13.6136 12.2566 13.3809 12.0003C13.1456 11.7416 12.893 11.4987 12.6459 11.2508C12.2611 10.8643 11.8774 10.4778 11.4878 10.0964C11.2058 9.8204 10.9059 9.81873 10.6099 10.0799C10.565 10.1196 10.522 10.162 10.4799 10.2043C10.1363 10.5469 9.79497 10.8914 9.4492 11.2315C9.20876 11.4679 8.94053 11.525 8.65428 11.383C8.36417 11.2388 8.07484 11.0874 7.80151 10.9143C6.86426 10.3218 6.05598 9.5792 5.32989 8.74556C4.83282 8.17464 4.3791 7.57341 4.05654 6.88346C3.78357 6.29989 3.82005 6.14091 4.28863 5.68952C4.62341 5.36699 4.95678 5.04192 5.27538 4.70393C5.53623 4.42743 5.52796 4.15004 5.28233 3.86071C5.25323 3.82646 5.22308 3.79291 5.19125 3.76111C4.60814 3.17701 4.02445 2.59361 3.44017 2.01091C3.37353 1.94469 3.29766 1.88276 3.21564 1.83797C2.95876 1.69743 2.69756 1.75742 2.43206 2.01794C2.1001 2.34372 1.77982 2.68144 1.44259 3.00169C1.05119 3.37288 0.86534 3.81934 0.883978 4.35733Z" fill="#00267C"/>
<path d="M8.54453 0C8.72844 0.0376812 8.95069 0.0740448 9.16819 0.129117C10.5003 0.466491 11.684 1.08529 12.7069 2.00571C13.7682 2.96074 14.5489 4.1061 15.0097 5.45762C15.154 5.88098 15.247 6.3227 15.3469 6.75995C15.4037 7.00922 15.2581 7.21203 15.0198 7.26596C14.7955 7.31673 14.5756 7.19306 14.5099 6.95854C14.441 6.71392 14.3995 6.46175 14.3323 6.2166C13.88 4.56741 12.9505 3.23909 11.5872 2.21581C10.695 1.54589 9.69321 1.11067 8.59552 0.899692C8.51235 0.883706 8.42769 0.867808 8.34936 0.838208C8.15427 0.764339 8.04421 0.559244 8.08139 0.355116C8.11726 0.154765 8.30197 0.00114185 8.54453 0Z" fill="#00267C"/>
<path d="M8.42699 2.78843C8.82401 2.84921 9.23782 2.96269 9.62913 3.14469C11.2309 3.8897 12.2097 5.12773 12.5655 6.85878C12.6182 7.11543 12.4793 7.34416 12.2395 7.40107C12.0115 7.45509 11.7886 7.31324 11.7138 7.0673C11.6139 6.73862 11.5494 6.39378 11.408 6.08417C10.8045 4.76234 9.7785 3.95584 8.35244 3.66063C8.09353 3.60705 7.95383 3.4565 7.9512 3.23208C7.94865 2.9792 8.14285 2.78535 8.42699 2.78843Z" fill="#00267C"/>
</g>
<defs>
<clipPath id="clip0_138_2217">
<rect width="15.3584" height="15.3584" fill="white"/>
</clipPath>
</defs>
</svg>
