<svg width="33" height="25" viewBox="0 0 33 25" fill="none" xmlns="http://www.w3.org/2000/svg">
<g clip-path="url(#clip0_139_2684)">
<path d="M32.7578 0.708236C32.3561 2.38312 31.9617 4.058 31.5744 5.73288C30.3212 11.0766 29.0679 16.4182 27.8146 21.7579C27.7881 21.8775 27.7532 21.9888 27.717 22.124L13.2814 18.0708C13.9213 17.5348 14.5034 17.0431 15.089 16.5538L28.1231 5.65989C28.1978 5.59768 28.2761 5.54025 28.346 5.47086C28.4746 5.35584 28.5528 5.19548 28.5638 5.02401C28.5749 4.85255 28.5179 4.6836 28.4051 4.55327C28.3518 4.48598 28.2853 4.43017 28.2096 4.38927C28.1339 4.34837 28.0506 4.32324 27.9647 4.31541C27.8789 4.30757 27.7923 4.31721 27.7104 4.34371C27.6284 4.37021 27.5528 4.41302 27.488 4.46953C27.0277 4.82844 26.5867 5.21484 26.1384 5.5893C21.4121 9.54361 16.6866 13.4983 11.9619 17.4535C11.9018 17.5176 11.8243 17.563 11.7387 17.5843C11.6532 17.6055 11.5632 17.6016 11.4798 17.5731C7.73928 16.4685 3.99713 15.371 0.253365 14.2808C0.184676 14.2604 0.119593 14.2269 0.00390625 14.1791L2.53456 13.0497L31.6974 0.108867C31.7707 0.0620105 31.8526 0.0298951 31.9384 0.0143511C32.1577 0.0143511 32.4083 -0.0239389 32.5867 0.0669832C32.8157 0.18901 32.8193 0.447433 32.7578 0.708236Z" fill="white"/>
<path d="M17.8519 20.7302L12.699 25C12.6544 23.0475 12.611 21.1788 12.5664 19.2575L17.8519 20.7302Z" fill="white"/>
</g>
<defs>
<clipPath id="clip0_139_2684">
<rect width="32.7925" height="25" fill="white"/>
</clipPath>
</defs>
</svg>
