<svg width="18" height="18" viewBox="0 0 18 18" fill="none" xmlns="http://www.w3.org/2000/svg">
<path d="M7.144 10.1069C5.49751 8.46044 5.12575 6.81396 5.04188 6.15429C5.01844 5.9719 5.08121 5.78898 5.2117 5.6594L6.54411 4.32758C6.74011 4.1317 6.77489 3.82643 6.62798 3.59148L4.50653 0.297325C4.344 0.0371617 4.01028 -0.0567337 3.73593 0.0805102L0.330247 1.68446C0.108394 1.79371 -0.0220974 2.02942 0.00309162 2.27542C0.18154 3.97068 0.920613 8.13804 5.016 12.2337C9.11139 16.3294 13.2782 17.0682 14.9743 17.2466C15.2203 17.2718 15.456 17.1413 15.5653 16.9195L17.1692 13.5138C17.3059 13.24 17.2127 12.9072 16.9536 12.7444L13.6594 10.6235C13.4246 10.4765 13.1194 10.511 12.9233 10.7068L11.5915 12.0392C11.4619 12.1697 11.279 12.2325 11.0966 12.209C10.437 12.1252 8.79048 11.7534 7.144 10.1069Z" fill="white"/>
<path d="M13.6821 9.21932C13.3536 9.21932 13.0873 8.95301 13.0873 8.6245C13.0845 6.16179 11.0888 4.16607 8.62608 4.16329C8.29756 4.16329 8.03125 3.89697 8.03125 3.56846C8.03125 3.23995 8.29756 2.97363 8.62608 2.97363C11.7455 2.97707 14.2735 5.50504 14.2769 8.6245C14.2769 8.95301 14.0106 9.21932 13.6821 9.21932Z" fill="white"/>
<path d="M16.6563 9.21983C16.3277 9.21983 16.0614 8.95352 16.0614 8.625C16.0568 4.52048 12.7306 1.19424 8.62608 1.18966C8.29756 1.18966 8.03125 0.923342 8.03125 0.594828C8.03125 0.266313 8.29756 0 8.62608 0C13.3874 0.00524515 17.2458 3.86372 17.2511 8.625C17.2511 8.78276 17.1884 8.93406 17.0769 9.04561C16.9653 9.15716 16.814 9.21983 16.6563 9.21983Z" fill="white"/>
</svg>
