<svg width="5" height="9" viewBox="0 0 5 9" fill="none" xmlns="http://www.w3.org/2000/svg">
<path d="M0 0H1V1H0V0Z" fill="#6F6E6E"/>
<path d="M1 1H2V2H1V1Z" fill="#6F6E6E"/>
<path d="M2 2H3V3H2V2Z" fill="#6F6E6E"/>
<path d="M3 3H4V4H3V3Z" fill="#6F6E6E"/>
<path d="M4 4H5V5H4V4Z" fill="#6F6E6E"/>
<path d="M3 5H4V6H3V5Z" fill="#6F6E6E"/>
<path d="M2 6H3V7H2V6Z" fill="#6F6E6E"/>
<path d="M1 7H2V8H1V7Z" fill="#6F6E6E"/>
<path d="M0 8H1V9H0V8Z" fill="#6F6E6E"/>
<path d="M0 6H1V7H0V6Z" fill="#6F6E6E"/>
<path d="M1 5H2V6H1V5Z" fill="#6F6E6E"/>
<path d="M2 4H3V5H2V4Z" fill="#6F6E6E"/>
<path d="M1 3H2V4H1V3Z" fill="#6F6E6E"/>
<path d="M0 2H1V3H0V2Z" fill="#6F6E6E"/>
<path d="M0 4H1V5H0V4Z" fill="#6F6E6E"/>
</svg>
