<svg width="19" height="21" viewBox="0 0 19 21" fill="none" xmlns="http://www.w3.org/2000/svg">
<g clip-path="url(#clip0_2007_4464)">
<path d="M13.8231 3.48325L17.8756 3.50463C18.8478 3.72832 19.0159 4.41582 18.9981 5.32536C18.9619 7.17514 18.7629 9.05123 18.6699 10.9016C18.5536 13.2124 18.5217 15.5463 18.3476 17.8517C18.2141 19.6236 17.5766 20.7223 15.7334 21.0002H3.21143C0.132173 20.6494 0.605821 17.5984 0.491194 15.2788C0.328445 11.9953 0.0667491 8.66856 0.000784354 5.38018C-0.019762 4.35277 0.200841 3.80946 1.22167 3.49531L5.31094 3.48325C5.39529 3.45419 5.52776 2.87251 5.58832 2.72503C7.24933 -1.30951 12.8893 -0.704796 13.8231 3.4827V3.48325ZM11.928 3.49038C11.0839 1.15047 7.94521 1.19433 7.07199 3.49038H11.928ZM9.59811 6.89553C6.29501 6.96626 4.84487 10.6576 8.22204 12.3084C8.96279 12.6702 10.5757 13.0814 11.0904 13.6126C11.7712 14.3144 11.2932 15.1664 10.507 15.4822C9.13744 16.0315 7.94088 15.0633 6.83246 14.3791L5.89165 15.8922C5.87164 16.1093 7.15417 16.8774 7.38505 16.9871C9.52728 18.0101 12.9261 17.3654 13.1164 14.5715C13.3089 11.7502 10.3232 11.6132 8.65406 10.6121C8.08362 10.27 7.75813 9.70639 8.28314 9.12305C9.15474 8.1543 11.2218 8.88237 12.0626 9.61702L12.9461 8.15814C12.9661 8.03643 12.1475 7.51615 11.9988 7.43939C11.3164 7.08742 10.3627 6.87909 9.59811 6.89553Z" fill="#00267C"/>
</g>
<defs>
<clipPath id="clip0_2007_4464">
<rect width="19" height="21" fill="white"/>
</clipPath>
</defs>
</svg>
