<svg width="20" height="20" viewBox="0 0 20 20" fill="none" xmlns="http://www.w3.org/2000/svg">
<g clip-path="url(#clip0_138_2200)">
<path d="M18.6875 19.454C18.5391 19.351 18.3723 19.2662 18.2446 19.1412C16.6478 17.5781 15.0542 16.0117 13.4638 14.442C13.424 14.4022 13.3818 14.3652 13.3329 14.3198C13.2779 14.3572 13.225 14.3899 13.1761 14.4273C12.1394 15.2269 10.9223 15.7598 9.63166 15.9792C7.68177 16.3115 5.825 16.019 4.10034 15.0278C2.30803 13.9947 1.06249 12.5001 0.397937 10.5347C0.201413 9.95282 0.079207 9.34848 0.0342225 8.73599C0.0265241 8.68691 0.0150832 8.63848 0 8.59114L0 7.52746C0.0489462 7.20394 0.087944 6.87803 0.14843 6.55649C0.360721 5.40174 0.836519 4.31152 1.53882 3.37061C2.71035 1.79558 4.23802 0.731101 6.14613 0.266709C8.8123 -0.380336 11.2525 0.144542 13.3886 1.86204C15.0997 3.2381 16.0945 5.05309 16.3178 7.24771C16.5124 9.15781 16.0571 10.9254 14.9712 12.518C14.7511 12.8403 14.5012 13.1423 14.2322 13.4973C14.29 13.5292 14.3446 13.5665 14.3954 13.6087C15.9937 15.179 17.5909 16.7502 19.1869 18.3223C19.4655 18.5977 19.5375 18.8933 19.3461 19.1492C19.2506 19.2773 19.0858 19.3541 18.9525 19.454H18.6875ZM1.25788 7.81676C1.2543 8.91506 1.45963 9.9696 1.81499 10.7269C2.92921 13.1026 4.79155 14.487 7.39127 14.8137C9.21183 15.0425 10.8963 14.598 12.3559 13.4762C14.4292 11.8845 15.3568 9.75471 15.0261 7.15817C14.7348 4.86885 13.5004 3.14379 11.4705 2.07971C9.16647 0.871174 6.81466 0.922508 4.57627 2.26475C2.41349 3.56083 1.3494 5.54215 1.25867 7.81676H1.25788Z" fill="#888888"/>
</g>
<defs>
<clipPath id="clip0_138_2200">
<rect width="19.4539" height="19.4539" fill="white"/>
</clipPath>
</defs>
</svg>
