<svg width="17" height="17" viewBox="0 0 17 17" fill="none" xmlns="http://www.w3.org/2000/svg">
<path d="M8.67163 16.9931C8.58551 17.0027 8.41241 17.0027 8.32629 16.9931C7.42356 16.8913 6.96354 15.9758 6.30531 15.5322C6.17116 15.442 6.05302 15.4271 5.89117 15.4329C5.07975 15.4636 4.25751 15.8628 3.46556 15.472C2.52302 15.0067 2.66669 13.8842 2.4356 13.0424C2.35251 12.7393 2.29279 12.7239 2.02664 12.5726C1.0828 12.0363 -0.332748 11.695 0.0705813 10.2731C0.196946 9.8283 0.895417 8.80641 0.886329 8.4838C0.878539 8.20816 0.363558 7.41701 0.225508 7.0998C-0.529653 5.36991 0.839158 5.09303 2.02708 4.41786C2.27418 4.27734 2.34862 4.2578 2.42997 3.9751C2.6615 3.17272 2.51436 2.14044 3.31929 1.60954C4.13417 1.07199 5.01916 1.52432 5.89203 1.55716C6.05388 1.5634 6.17159 1.54843 6.30618 1.4578C6.89646 1.06035 7.36211 0.222638 8.119 0.0455333C8.39294 -0.0184906 8.63528 -0.0155804 8.90792 0.0534323C9.6488 0.240515 10.111 1.06493 10.6943 1.4578C10.8289 1.54843 10.9471 1.56298 11.1085 1.55716C11.9814 1.52432 12.8659 1.07158 13.6812 1.60954C14.4862 2.14044 14.339 3.17272 14.5705 3.9751C14.6523 4.2578 14.7268 4.27734 14.9734 4.41786C16.1648 5.0951 17.5302 5.36908 16.775 7.0998C16.6365 7.41701 16.122 8.20774 16.1142 8.4838C16.1051 8.8035 16.8027 9.83038 16.9299 10.2731C17.3372 11.6925 15.9164 12.0367 14.9739 12.5726C14.7073 12.7239 14.648 12.7393 14.5649 13.0424C14.3464 13.8385 14.4736 14.8583 13.6821 15.3809C12.8672 15.9185 11.9822 15.4661 11.1094 15.4333C10.9475 15.4271 10.8294 15.442 10.6952 15.5327C10.037 15.9758 9.57696 16.8917 8.67423 16.9936L8.67163 16.9931ZM8.32586 5.88002C8.32586 4.88931 7.48977 4.0861 6.45851 4.0861C5.42725 4.0861 4.59116 4.88931 4.59116 5.88002C4.59116 6.87073 5.42725 7.67394 6.45851 7.67394C7.48977 7.67394 8.32586 6.87073 8.32586 5.88002ZM11.7373 4.78538C11.662 4.80034 11.5776 4.85896 11.5213 4.90968L4.74912 11.416C4.35618 11.8858 4.97156 12.4753 5.45884 12.0978L12.2484 5.57528C12.5703 5.19945 12.2276 4.68768 11.7373 4.78579V4.78538ZM12.4063 11.1104C12.4063 10.1197 11.5702 9.31652 10.539 9.31652C9.50772 9.31652 8.67163 10.1197 8.67163 11.1104C8.67163 12.1011 9.50772 12.9044 10.539 12.9044C11.5702 12.9044 12.4063 12.1011 12.4063 11.1104Z" fill="#FF4800"/>
</svg>
