<svg width="15" height="13" viewBox="0 0 15 13" fill="none" xmlns="http://www.w3.org/2000/svg">
<g clip-path="url(#clip0_2017_532)">
<path d="M0 11.7776V5.16024C0.09205 4.61249 0.342896 4.13424 0.769773 3.76871C2.07278 2.70994 3.25476 1.40376 4.55299 0.353635C5.08732 -0.0788769 5.78522 -0.135057 6.33935 0.299616L10.398 3.95778C10.76 4.35392 10.9448 4.82964 10.9763 5.36155C11.0973 7.41751 10.8832 9.58763 10.9745 11.6555C10.9184 12.3285 10.4083 12.8432 9.7243 12.9127L1.22489 12.9112C0.632615 12.8579 0.0766473 12.3656 0.000366733 11.7772L0 11.7776ZM5.41115 2.16903C4.91716 2.24862 5.00958 3.02649 5.53914 2.97103C6.08777 2.91341 5.98875 2.07612 5.41115 2.16903ZM3.26686 4.76266C1.61436 4.95749 1.8377 7.74198 3.53421 7.59073C5.23328 7.43948 5.02205 4.55559 3.26686 4.76266ZM6.4292 4.97765C6.28948 4.99962 6.17139 5.10982 6.10941 5.23118L4.07184 10.0389C4.05387 10.4879 4.62414 10.659 4.85592 10.2668L6.87735 5.52649C6.99324 5.22938 6.74276 4.92868 6.42883 4.97801L6.4292 4.97765ZM7.41975 7.97642C5.66786 8.1943 6.09474 11.2449 7.91557 10.7591C9.42981 10.3551 9.05318 7.77331 7.41975 7.97642Z" fill="white"/>
<path d="M14.0827 8.6445C14.0724 8.7565 14.0966 8.88723 14.0827 8.99562C14.0108 9.5513 13.6129 9.85993 13.1387 10.0807C12.7015 10.2845 12.2365 10.4376 11.8001 10.6432L11.8008 5.30757C11.7565 4.62621 11.5144 3.98627 11.0578 3.47129L7.81152 0.515015L10.7072 1.19601C11.2328 1.40237 11.641 1.78554 11.876 2.29008L14.083 8.6445H14.0827Z" fill="white"/>
<path d="M3.34836 5.57183C3.9223 5.47351 4.1075 6.51608 3.57683 6.74152C2.90498 7.0271 2.69704 5.68311 3.34836 5.57183Z" fill="white"/>
<path d="M7.50152 8.78568C8.09892 8.66648 8.27752 9.77387 7.71642 9.96942C7.15532 10.165 6.87844 9.20523 7.35776 8.86095C7.397 8.83286 7.45494 8.79505 7.50152 8.78568Z" fill="white"/>
</g>
<defs>
<clipPath id="clip0_2017_532">
<rect width="14.087" height="12.913" fill="white"/>
</clipPath>
</defs>
</svg>
