<svg width="20" height="20" viewBox="0 0 20 20" fill="none" xmlns="http://www.w3.org/2000/svg">
<path d="M19.1668 20C18.9535 20 18.7401 19.9184 18.5776 19.7559L12.761 13.9392C12.4351 13.6134 12.4351 13.0867 12.761 12.7609C13.0868 12.435 13.6135 12.435 13.9393 12.7609L19.756 18.5775C20.0818 18.9034 20.0818 19.43 19.756 19.7559C19.5935 19.9184 19.3801 20 19.1668 20Z" fill="white"/>
<path d="M8.125 16.25C3.645 16.25 0 12.605 0 8.125C0 3.645 3.645 0 8.125 0C12.605 0 16.25 3.645 16.25 8.125C16.25 12.605 12.605 16.25 8.125 16.25ZM8.125 1.66667C4.56417 1.66667 1.66667 4.56417 1.66667 8.125C1.66667 11.6858 4.56417 14.5833 8.125 14.5833C11.6858 14.5833 14.5833 11.6858 14.5833 8.125C14.5833 4.56417 11.6858 1.66667 8.125 1.66667Z" fill="white"/>
</svg>
