<svg width="39" height="33" viewBox="0 0 39 33" fill="none" xmlns="http://www.w3.org/2000/svg">
<g clip-path="url(#clip0_2007_3637)">
<path d="M2.41535 17.0117C2.71129 17.0638 2.74485 17.0044 2.9686 16.9523C4.62427 16.5677 4.39952 14.183 2.81605 14.0653C0.81967 13.9173 0.672204 16.7011 2.41433 17.0107L2.41535 17.0117Z" fill="#00267C"/>
<path d="M38.943 8.83433C37.9474 7.57841 36.9782 6.27246 35.8951 5.09262C35.1506 4.28175 34.8974 3.7356 33.8753 4.58609C32.5553 5.68358 33.4034 6.06088 34.1031 7.15525L32.3142 8.37157C30.4602 6.78421 28.1669 5.65857 25.7302 5.48347L26.197 3.31036C27.7062 3.17383 29.2958 3.88673 29.5287 1.77094C29.667 0.512938 29.5093 0.186712 28.2838 0.0981196C26.3831 -0.0384163 23.4866 -0.024867 21.5777 0.0981196C21.1801 0.124176 20.6787 0.16274 20.3634 0.413924C19.8346 0.838123 19.5153 2.65478 20.098 3.10399C20.1427 3.13839 20.4926 3.29994 20.515 3.29994H23.1409L22.7503 5.47409C21.4669 5.62105 20.1936 5.94206 18.9905 6.41838C17.6124 6.96452 16.3615 8.02867 14.8848 8.14019C11.125 8.42368 7.02749 7.9234 3.23305 8.13498C1.56923 8.46642 1.67297 10.948 3.38458 11.1044C5.49181 11.2972 7.85736 10.9387 9.99306 11.12C11.2206 11.3629 11.6477 13.0555 10.5768 13.7871C9.69712 14.3885 7.26241 13.8893 6.13354 14.0706C5.17247 14.2249 4.75347 15.5319 5.26502 16.3542C6.09388 17.6842 7.87261 16.4178 8.71164 17.581C9.37269 18.4971 8.86623 19.8166 7.73023 19.9198C5.73589 20.1001 3.38255 19.6915 1.41668 19.925C0.674272 20.0136 0.33256 20.3617 0 21.009V21.8667C0.257302 22.3931 0.609184 22.81 1.19803 22.9403C3.34187 23.1571 5.8559 22.7141 7.95499 22.959C9.27303 23.1133 9.60152 25.0029 8.47671 25.6783C7.86244 26.0472 6.10913 25.7554 5.2996 25.8544C3.50357 26.0754 3.51069 28.6831 5.36672 28.8884C7.45157 29.1188 10.3012 28.3142 12.084 29.5722C13.6248 30.6592 14.3326 31.5472 16.2517 32.2445C27.0868 36.1769 39.2766 24.0055 35.2483 12.8543C34.9747 12.0966 34.5537 11.4108 34.2638 10.6833L36.0487 9.45865C36.2266 9.45865 36.8938 10.6156 37.4186 10.6374C37.9199 10.6583 39.2949 9.50346 38.943 8.83329V8.83433ZM31.5291 23.0903C28.292 29.0312 19.3668 32.8594 14.1099 27.3792C8.84385 21.8897 12.9464 12.9137 18.8013 9.81197C28.2188 4.82268 36.7362 13.5328 31.5291 23.0903Z" fill="#00267C"/>
<path d="M26.6444 17.1087C26.2407 17.0962 25.8308 17.1087 25.4261 17.1087H24.4365V16.7971L25.4322 12.701C25.4312 12.011 24.8545 12.0611 24.3603 12.0381C23.8863 12.0163 23.39 12.0329 22.9141 12.0381C22.433 12.0434 21.3601 11.9287 21.0113 12.1945C20.7977 12.356 20.8058 12.4822 20.7285 12.724C20.0207 14.9325 19.6983 17.5361 19.1013 19.8019C19.0546 20.6587 20.4845 20.3866 21.0875 20.3866C21.594 20.3866 22.1035 20.3866 22.61 20.3866C22.6069 20.4752 22.672 20.6983 22.61 20.8546L21.3947 25.8825C21.531 26.4984 22.1157 26.5672 22.6497 26.4703C22.8144 26.4401 22.7971 26.3452 22.8388 26.315C23.2934 25.9877 24.1447 24.3931 24.5138 23.8188C24.8962 23.2237 25.2786 22.6244 25.6559 22.024C26.082 21.3466 26.5285 20.6753 26.9506 19.9958C27.2129 19.5737 28.0072 18.4856 28.1262 18.1197C28.4812 17.0254 27.3085 17.1306 26.6465 17.1098L26.6444 17.1087Z" fill="#00267C"/>
</g>
<defs>
<clipPath id="clip0_2007_3637">
<rect width="39" height="33" fill="white"/>
</clipPath>
</defs>
</svg>
