<svg width="15" height="15" viewBox="0 0 15 15" fill="none" xmlns="http://www.w3.org/2000/svg">
<g clip-path="url(#clip0_138_2208)">
<path d="M0 7.58719V6.74728C0.0116654 6.64649 0.0233308 6.54582 0.0349963 6.44526C0.206478 4.90298 0.795465 3.54232 1.8352 2.38885C2.93969 1.16398 4.30454 0.399307 5.93257 0.111638C6.20239 0.0636932 6.47431 0.0367461 6.74728 0H7.58719C7.62261 0.0104039 7.65875 0.0181249 7.69533 0.0230975C8.81521 0.102189 9.8651 0.422755 10.8222 1.00929C12.6788 2.14737 13.8221 3.78765 14.2228 5.93397C14.2729 6.20274 14.2977 6.47606 14.3345 6.74728V7.58719C14.3228 7.68798 14.3111 7.78865 14.2995 7.88921C14.128 9.43149 13.539 10.7921 12.4993 11.9456C11.3955 13.1705 10.0282 13.9352 8.4012 14.2228C8.13138 14.2708 7.85806 14.2977 7.58649 14.3345H6.74658C6.71117 14.3241 6.67502 14.3163 6.63844 14.3114C5.51856 14.2323 4.46867 13.9117 3.51153 13.3252C1.65567 12.1871 0.512345 10.5468 0.111638 8.3991C0.0615934 8.13173 0.0367461 7.85841 0 7.58719ZM13.2212 7.16724C13.2237 3.82929 10.516 1.11848 7.17248 1.11288C3.83874 1.10623 1.12513 3.81459 1.11323 7.15814C1.10168 10.4947 3.82684 13.2233 7.16759 13.2212C8.77259 13.2203 10.3116 12.5824 11.4466 11.4476C12.5817 10.3129 13.2199 8.77399 13.2212 7.16899V7.16724Z" fill="#00267C"/>
<path d="M6.61012 5.5441C6.61012 4.99815 6.60522 4.45256 6.61012 3.90662C6.61502 3.48666 6.99753 3.21894 7.37059 3.36593C7.59701 3.45517 7.72265 3.65955 7.723 3.94792C7.723 4.87147 7.72825 5.79537 7.71845 6.71892C7.7167 6.8841 7.77095 6.97789 7.89938 7.07203C8.49747 7.51054 9.08751 7.95989 9.68104 8.40399C9.88752 8.55832 9.98516 8.75815 9.92112 9.01293C9.82488 9.39438 9.39267 9.55222 9.06406 9.32544C8.85688 9.18231 8.6595 9.02552 8.45792 8.87434C7.94663 8.48938 7.43918 8.10267 6.92264 7.72681C6.70251 7.56653 6.60172 7.3688 6.60767 7.09688C6.61432 6.57928 6.60977 6.06204 6.61012 5.5441Z" fill="#00267C"/>
</g>
<defs>
<clipPath id="clip0_138_2208">
<rect width="14.3345" height="14.3345" fill="white"/>
</clipPath>
</defs>
</svg>
