<svg width="45" height="46" viewBox="0 0 45 46" fill="none" xmlns="http://www.w3.org/2000/svg">
<g clip-path="url(#clip0_2007_4503)">
<path d="M27.1752 23.7229C28.2469 24.5651 29.0162 25.8055 30.3819 26.1737C34.1661 27.1939 36.681 22.5078 34.3237 19.5252C32.3557 17.5714 30.4348 15.5574 28.4574 13.6143C27.2411 12.4196 25.0085 9.80165 23.404 9.57908C21.7995 9.3565 20.6867 9.63683 19.4998 10.6823C16.4508 13.3677 13.6476 16.8002 10.6339 19.571C8.32593 22.5836 10.9127 27.2721 14.6886 26.1544C16.0002 25.7658 16.7931 24.5507 17.8259 23.7229L17.8259 41.8154C17.8259 42.1667 18.2435 43.2002 18.4281 43.5455C20.1844 46.8204 24.8191 46.8192 26.5741 43.5455C26.7588 43.2002 27.1764 42.1667 27.1764 41.8154L27.1764 23.7229L27.1752 23.7229Z" fill="#00267C"/>
<path d="M13.8536 44.0256L13.8536 41.0924C3.60667 35.937 -0.339872 22.8387 5.577 12.6856C13.3666 -0.677476 32.5405 -0.276837 39.8066 13.3761C45.2612 23.6231 40.9924 36.3798 30.7925 41.274L30.7925 44.1158C31.83 43.8583 32.9134 43.246 33.8509 42.6877C45.5565 35.7132 48.649 19.7707 40.2289 8.79347C30.5655 -3.80679 11.5445 -2.66142 3.31848 10.917C-3.93705 22.8952 1.20698 38.7968 13.8536 44.0256Z" fill="#00267C"/>
</g>
<defs>
<clipPath id="clip0_2007_4503">
<rect width="45" height="46" fill="white" transform="matrix(-1 -8.74228e-08 -8.74228e-08 1 45 3.93402e-06)"/>
</clipPath>
</defs>
</svg>
