<svg width="19" height="22" viewBox="0 0 19 22" fill="none" xmlns="http://www.w3.org/2000/svg">
<path d="M13.5087 0C13.5025 2.70443 15.6875 5.06061 18.43 5.31236C18.6157 5.32955 18.8595 5.2558 19 5.37502V8.75819C17.5971 8.80643 16.2134 8.44322 14.9584 7.85265L13.5087 6.97372C13.5177 9.04211 13.4963 11.1122 13.5064 13.1811C13.5177 15.4707 13.551 17.096 11.9252 18.9288C7.62009 23.7792 -0.594024 20.426 0.0340546 14.0096C0.399728 10.2754 4.05252 7.57927 7.80575 8.17705V11.6639C7.03998 11.502 6.37466 11.4693 5.6292 11.746C1.68918 13.2094 4.01471 19.16 8.00326 17.5657C10.2633 16.6624 9.97553 14.5092 10.0043 12.5168C10.0641 8.34618 9.95578 4.17059 10.0021 0H13.5081L13.5087 0Z" fill="#00267C"/>
</svg>
