<svg width="16" height="11" viewBox="0 0 16 11" fill="none" xmlns="http://www.w3.org/2000/svg">
<path d="M8 0C4.47095 0 1.42938 2.06941 0.0321837 5.05572C-0.0107279 5.14622 -0.0107279 5.25208 0.0321837 5.34428C1.42938 8.33057 4.47097 10.4 8 10.4C11.529 10.4 14.5706 8.33059 15.9678 5.34428C16.0107 5.25378 16.0107 5.14792 15.9678 5.05572C14.5706 2.06941 11.529 0 8 0ZM8 8.7882C6.00719 8.7882 4.39371 7.18148 4.39371 5.20085C4.39371 3.21852 6.0089 1.61353 8 1.61353C9.99281 1.61353 11.6063 3.22023 11.6063 5.20085C11.6063 7.18148 9.9911 8.7882 8 8.7882Z" fill="#666666"/>
<path d="M8.00005 7.49572C9.27507 7.49572 10.3087 6.46754 10.3087 5.19921C10.3087 3.93089 9.27507 2.90271 8.00005 2.90271C6.72502 2.90271 5.69141 3.93089 5.69141 5.19921C5.69141 6.46754 6.72502 7.49572 8.00005 7.49572Z" fill="#666666"/>
</svg>
