<svg width="22" height="15" viewBox="0 0 22 15" fill="none" xmlns="http://www.w3.org/2000/svg">
<path d="M20.8067 2.30553C20.692 1.85339 20.4583 1.43912 20.1293 1.10457C19.8002 0.77001 19.3875 0.527019 18.9328 0.400134C17.2714 8.51779e-08 10.6258 0 10.6258 0C10.6258 0 3.98019 2.83926e-08 2.31879 0.438242C1.86407 0.565126 1.45136 0.808118 1.12233 1.14267C0.793307 1.47723 0.559622 1.8915 0.44488 2.34364C0.140819 4.00663 -0.00791332 5.69362 0.000552169 7.38342C-0.0102863 9.08593 0.138456 10.7858 0.44488 12.4613C0.571378 12.8994 0.810299 13.2979 1.13856 13.6183C1.46682 13.9388 1.87332 14.1703 2.31879 14.2905C3.98019 14.7287 10.6258 14.7287 10.6258 14.7287C10.6258 14.7287 17.2714 14.7287 18.9328 14.2905C19.3875 14.1636 19.8002 13.9206 20.1293 13.5861C20.4583 13.2515 20.692 12.8372 20.8067 12.3851C21.1084 10.7346 21.2571 9.06049 21.251 7.38342C21.2619 5.6809 21.1131 3.98104 20.8067 2.30553Z" fill="#00267C"/>
<path d="M8.45239 10.4987L14.0065 7.38339L8.45239 4.26807V10.4987Z" fill="white"/>
</svg>
