<svg xmlns="http://www.w3.org/2000/svg" viewBox="0 0 29 11"><defs><style>.cls-1{fill:#fff;}</style></defs><g id="Layer_2" data-name="Layer 2"><g id="Layer_1-2" data-name="Layer 1"><path class="cls-1" d="M3.76,9.1H8.55c.87,0,1.35.28,1.44.79S9.58,11,8.63,11H3.27c-.52,0-1,0-1.55,0a1.85,1.85,0,0,1-1.58-.62C-.16,9.88.06,9.43.48,9L5.6,4.2l.3-.29c-.11-.14-.26-.07-.4-.08H1.91a4.54,4.54,0,0,1-.82-.07,1.51,1.51,0,0,1-.41-.13,1.1,1.1,0,0,1-.31-.25.66.66,0,0,1-.16-.31.65.65,0,0,1,0-.34,1,1,0,0,1,.85-.64A4.54,4.54,0,0,1,1.89,2H7.8a4.52,4.52,0,0,1,1,.09c.75.19,1.07.7.77,1.24a5.94,5.94,0,0,1-1.1,1.28L4.17,8.7A4.89,4.89,0,0,0,3.76,9.1Z"/><path class="cls-1" d="M15.36,3.87a1.33,1.33,0,0,1,.8-.62,1.09,1.09,0,0,1,1.36,1c0,1.82,0,3.63,0,5.45a1.1,1.1,0,0,1-.2.63,1.18,1.18,0,0,1-1.21.43,1.1,1.1,0,0,1-.56-.39c-.15-.19-.21-.23-.43-.06a2.66,2.66,0,0,1-2.69.47A3.57,3.57,0,0,1,10,7.49a3.78,3.78,0,0,1,1.8-3.94A2.73,2.73,0,0,1,15.36,3.87ZM12.24,7.18a1.91,1.91,0,0,0,.37,1.09,1.42,1.42,0,0,0,2,.3,1.18,1.18,0,0,0,.29-.3,2.29,2.29,0,0,0,0-2.51,1.39,1.39,0,0,0-.46-.41,1.21,1.21,0,0,0-.59-.16C12.91,5.13,12.23,5.9,12.24,7.18Zm9.25.05A3.76,3.76,0,1,1,29,6.84,3.75,3.75,0,0,1,25.59,11,3.64,3.64,0,0,1,21.49,7.23ZM23.7,7a2.09,2.09,0,0,0,.38,1.27,1.46,1.46,0,0,0,1,.58,1.52,1.52,0,0,0,.56,0,1.64,1.64,0,0,0,.51-.26,2,2,0,0,0,.25-.26,2.28,2.28,0,0,0,0-2.54,1.34,1.34,0,0,0-1.05-.57C24.38,5.14,23.7,5.88,23.7,7Zm-3-1.58c0,1.4,0,2.81,0,4.22a1.23,1.23,0,0,1-.32.83,1.14,1.14,0,0,1-.79.36l-.33,0a1.18,1.18,0,0,1-.78-1.17V2.42c0-.42,0-.84,0-1.27a1.11,1.11,0,1,1,2.22,0C20.72,2.59,20.71,4,20.71,5.43Z"/></g></g></svg>